PathFileType	4	(X/Y/Z)	D:\TRACE\spot_10-12-23\spot_arm_body_motion_1_5-platform.trc
DataRate	CameraRate	NumFrames	NumMarkers	Units	OrigDataRate	OrigDataStartFrame	OrigNumFrames
100.00	100.00	      24	5	mm	100.00	5251	      7000
Frame#	Time	Left_Front			Right_Front			Left_Aft			Right_Aft			Post			
		X1	Y1	Z1	X2	Y2	Z2	X3	Y3	Z3	X4	Y4	Z4	X5	Y5	Z5	

5251	52.500	-732.78540	32.90263	-645.51056	834.59198	30.76884	-621.21545	-665.41815	-2.70724	492.50555	742.75421	-7.03407	594.56128	54.63231	770.91254	-932.66077	
5252	52.510	-732.75616	33.23850	-645.43005	834.74609	31.39446	-621.09338	-665.28082	-3.02266	492.55731	742.79865	-7.36971	594.61279	54.64754	771.38928	-932.41754	
5253	52.520	-732.83038	33.53338	-645.27057	834.73138	31.66290	-620.93347	-665.23303	-3.26218	492.70636	742.56818	-7.76830	594.35303	54.59987	771.87238	-932.17224	
5254	52.530	-732.84180	33.88778	-645.21442	834.78241	32.08609	-620.79956	-665.18597	-3.48402	492.84665	742.69452	-7.97430	594.72778	54.60096	772.18671	-932.09131	
5255	52.540	-732.90448	34.25079	-645.17993	834.75946	32.43732	-620.77411	-665.15778	-3.66496	492.91595	742.65564	-8.21165	594.86420	74.01913	706.17834	-962.77295	
5256	52.550	-732.82013	34.60021	-645.11450	834.84314	32.88567	-620.70898	-665.17065	-3.81502	492.95074	742.70514	-8.51400	594.74939	76.28790	705.61700	-940.67908	
5257	52.560	-732.85577	35.05070	-644.95703	834.86023	33.20477	-620.62799	-665.16138	-3.96746	493.01282	742.71698	-8.63498	595.06342	54.73374	773.88800	-930.51349	
5258	52.570	-732.97430	35.40626	-644.88574	834.74493	33.38865	-620.56909	-665.30072	-4.28836	493.11478	742.65887	-8.89319	595.16962	54.74630	774.17633	-929.92706	
5259	52.580	-733.17554	35.81710	-644.82690	834.48645	33.73397	-620.47687	-665.44141	-4.46848	493.11664	742.58209	-9.16633	595.27527	54.62931	774.60022	-929.32916	
5260	52.590	-733.32544	36.08017	-644.87500	834.21320	34.12833	-620.31281	-665.69061	-4.78808	493.18155	742.29156	-9.50449	595.29803	54.09628	775.18665	-928.41919	
5261	52.600	-733.58136	36.38693	-644.86230	833.99902	34.43073	-620.23010	-665.92511	-4.99023	493.28900	742.03613	-9.81178	595.36340	53.77889	775.67175	-927.93121	
5262	52.610	-733.87299	36.75763	-644.73120	833.85712	34.67223	-620.12079	-666.14197	-5.19325	493.36386	741.70886	-10.00706	595.19733	73.90334	708.68707	-958.97589	
5263	52.620	-734.12653	36.99475	-644.57129	833.56781	34.95648	-620.07739	-666.38239	-5.40520	493.40247	741.62891	-10.03746	595.71460	53.10276	776.58160	-926.54279	
5264	52.630	-734.40308	37.13415	-644.44141	833.26880	35.20068	-620.01959	-666.65405	-5.64985	493.44031	741.25775	-10.41739	595.65686	53.09393	776.82489	-926.18231	
5265	52.640	-734.63251	37.26075	-644.34644	833.06744	35.39907	-619.94409	-666.91663	-5.94309	493.45175	741.07196	-10.59130	595.75641	52.97832	777.12708	-925.84491	
5266	52.650	-734.86676	37.39388	-644.24664	832.80060	35.67341	-619.86682	-667.15631	-6.06563	493.50632	740.81830	-10.69652	595.81549	52.72437	777.53076	-925.65906	
5267	52.660	-735.16620	37.59241	-644.19684	832.53418	35.91359	-619.76758	-667.42773	-6.20951	493.53922	740.46521	-10.86532	595.92023	52.33481	777.83081	-925.52533	
5268	52.670	-735.46313	37.83542	-644.14227	831.68109	35.61118	-619.97302	-667.74219	-6.26433	493.62811	740.09521	-11.07594	595.95801	51.85307	778.11780	-925.53033	
5269	52.680	-735.91998	38.10759	-644.03784	831.29669	35.96780	-619.81311	-668.20911	-6.46411	493.75439	739.59631	-11.37016	596.09595	72.23766	711.37854	-958.23840	
5270	52.690	-736.25427	38.30392	-644.05627	830.93439	36.17036	-619.71893	-668.60724	-6.53133	493.74359	739.20245	-11.52791	595.97711	50.94860	778.85199	-925.46185	
5271	52.700	-736.62982	38.49749	-644.01874	830.65155	36.47052	-619.69806	-669.12653	-6.68438	493.72372	738.86896	-11.65349	596.22632	50.70993	779.21918	-925.46643	
5272	52.710	-737.04669	38.85133	-644.02350	830.31317	36.74016	-619.68903	-669.53668	-6.76582	493.73520	738.55347	-11.78152	596.25031	50.39613	779.57300	-925.33752	
5273	52.720	-737.51270	39.21236	-643.97607	829.87329	36.97820	-619.64880	-669.79083	-6.86520	493.78143	738.27820	-11.95538	596.31543	49.99905	779.81775	-925.12854	
5274	52.730	-737.95807	39.42109	-643.90344	829.44684	37.18589	-619.55396	-670.09564	-6.98061	493.79095	737.78644	-12.13704	596.37817	49.51753	780.06934	-924.51312	
